<svg width="16" height="16" viewBox="0 0 16 16" fill="none" xmlns="http://www.w3.org/2000/svg">
<circle cx="8" cy="8" r="7.5" fill="white" stroke="#D0D0D0"/>
<path d="M7.45817 9.552C7.46511 9.02423 7.52588 8.63881 7.64046 8.39575C7.75505 8.1527 7.96511 7.89922 8.27067 7.63534C8.55539 7.38534 8.77241 7.14922 8.92171 6.927C9.07102 6.70478 9.14567 6.4652 9.14567 6.20825C9.14567 5.90964 9.04498 5.65964 8.84359 5.45825C8.6422 5.25686 8.36442 5.15617 8.01025 5.15617C7.65609 5.15617 7.38178 5.25513 7.18734 5.45304C6.99289 5.65096 6.84706 5.87145 6.74984 6.1145L5.7915 5.68742C5.95123 5.24992 6.22032 4.8836 6.5988 4.58846C6.97727 4.29332 7.44775 4.14575 8.01025 4.14575C8.71859 4.14575 9.26373 4.34367 9.64567 4.7395C10.0276 5.13534 10.2186 5.6145 10.2186 6.177C10.2186 6.53117 10.1474 6.84888 10.005 7.13013C9.86268 7.41138 9.63525 7.69784 9.32275 7.9895C8.98248 8.302 8.77761 8.54679 8.70817 8.72388C8.63873 8.90096 8.60053 9.177 8.59359 9.552H7.45817ZM8.01025 12.2395C7.78803 12.2395 7.60053 12.1631 7.44775 12.0103C7.29498 11.8576 7.21859 11.6701 7.21859 11.4478C7.21859 11.2326 7.29498 11.0485 7.44775 10.8958C7.60053 10.743 7.78803 10.6666 8.01025 10.6666C8.22553 10.6666 8.40956 10.743 8.56234 10.8958C8.71511 11.0485 8.7915 11.2326 8.7915 11.4478C8.7915 11.6701 8.71511 11.8576 8.56234 12.0103C8.40956 12.1631 8.22553 12.2395 8.01025 12.2395Z" fill="#0068B7"/>
</svg>
