<svg width="9" height="14" viewBox="0 0 9 14" fill="none" xmlns="http://www.w3.org/2000/svg">
<path d="M0.956687 13.3583C0.806687 13.1639 0.726999 12.95 0.717624 12.7166C0.708249 12.4833 0.787937 12.2791 0.956687 12.1041L5.90669 6.97081L0.928562 1.80831C0.778562 1.65276 0.708249 1.44373 0.717624 1.18123C0.726999 0.918728 0.806687 0.7097 0.956687 0.554145C1.14419 0.3597 1.34575 0.267339 1.56137 0.277062C1.777 0.286784 1.96919 0.379145 2.13794 0.554145L7.73481 6.35831C7.82856 6.45553 7.89419 6.55276 7.93169 6.64998C7.96919 6.7472 7.98794 6.85415 7.98794 6.97081C7.98794 7.08748 7.96919 7.19442 7.93169 7.29165C7.89419 7.38887 7.82856 7.48609 7.73481 7.58331L2.16606 13.3583C1.99731 13.5333 1.80044 13.616 1.57544 13.6062C1.35044 13.5965 1.14419 13.5139 0.956687 13.3583Z" fill="#0068B7"/>
</svg>
