<svg width="4" height="8" viewBox="0 0 4 8" fill="none" xmlns="http://www.w3.org/2000/svg">
<g clip-path="url(#clip0_162_652)">
<path d="M0.131968 0.14924C0.0494505 0.265931 0.00561244 0.394291 0.000455063 0.534319C-0.00470231 0.674348 0.0391357 0.796872 0.131968 0.901894L2.85506 3.98252L0.116496 7.08065C0.033978 7.174 -0.00470231 7.29944 0.000455063 7.45697C0.00561244 7.61451 0.0494505 7.73995 0.131968 7.8333C0.235116 7.94999 0.345999 8.00542 0.464619 7.99958C0.583238 7.99375 0.688965 7.93832 0.781797 7.8333L3.86075 4.35009C3.91232 4.29175 3.94843 4.2334 3.96906 4.17506C3.98969 4.11671 4 4.05253 4 3.98252C4 3.9125 3.98969 3.84832 3.96906 3.78998C3.94843 3.73163 3.91232 3.67329 3.86075 3.61494L0.79727 0.14924C0.704437 0.0442192 0.596132 -0.00537395 0.472355 0.000460571C0.348578 0.00629509 0.235116 0.0558882 0.131968 0.14924Z" fill="#C0C8CF"/>
</g>
<defs>
<clipPath id="clip0_162_652">
<rect width="4" height="8" fill="white" transform="matrix(1 0 0 -1 0 8)"/>
</clipPath>
</defs>
</svg>
