<svg width="67" height="66" viewBox="0 0 67 66" fill="none" xmlns="http://www.w3.org/2000/svg">
<rect x="0.922607" width="65.387" height="65.387" rx="16" fill="#36DA76"/>
<path d="M42.0839 45.4382C42.029 44.2648 41.9563 43.0976 41.8981 41.933C41.71 38.2898 41.7254 34.5932 41.5285 30.932C41.3317 27.2982 41.4484 23.662 41.3446 20.0283C41.3236 19.2732 41.3574 17.7817 40.5759 17.3512C38.895 16.4264 37.897 18.949 37.4694 19.976C36.6985 21.8401 36.2531 23.8007 35.7024 25.732C35.2331 27.3851 34.6987 29.0328 34.5175 30.7444C34.3834 32.0287 34.3957 33.4664 35.0666 34.6236C35.4035 35.2052 35.9861 35.601 36.6494 35.7683C37.3378 35.9445 38.1249 35.7139 38.7782 36.0248C38.9466 36.1061 39.0949 36.2752 39.1625 36.4459C39.3742 36.9962 39.174 37.831 39.1078 38.3987C38.8981 40.2274 38.6763 42.0743 38.5771 43.9118C38.5184 45.023 38.4535 46.4462 39.1257 47.4144C39.5377 48.0023 40.3728 48.5513 41.1263 48.2591C42.2524 47.8281 42.1307 46.372 42.0839 45.4382Z" fill="white"/>
<path d="M27.7573 18.1624C27.4337 18.2921 27.5564 19.4492 27.542 19.8047C27.5207 20.4434 27.5643 21.2886 27.4874 22.1163C27.487 22.1237 27.4859 22.1289 27.4848 22.134C27.4781 22.1915 27.4727 22.2536 27.4633 22.3191C27.4532 22.3824 27.4424 22.4434 27.4347 22.506C27.3657 22.9096 27.2344 23.3875 26.9861 23.6167C26.7043 23.8787 26.0727 23.8236 25.8534 23.514C25.4946 23.0099 25.5215 21.8845 25.4997 21.8513C25.4851 21.3189 25.4075 19.7086 25.2912 18.6469C25.2815 18.5669 25.2661 18.0857 24.8267 18.0343C24.6218 18.012 24.4062 18.1866 24.3363 18.5055C24.13 19.4468 23.9367 21.2411 23.9246 21.5233C23.9221 21.5506 23.9209 21.5825 23.9208 21.6092C23.9208 21.6092 23.9197 21.6143 23.9203 21.6166C23.919 21.6751 23.8492 23.0809 23.4934 23.5659C23.3075 23.8202 22.8248 24.0201 22.3451 23.7511C22.154 23.6428 22.0231 23.434 21.9308 23.2104C21.4292 21.649 21.8795 19.929 21.9436 19.1094C21.9625 18.8789 22.1713 18.1092 21.7056 18.1349C21.0043 18.173 20.0988 21.1607 19.9369 21.8455C19.5399 23.5493 19.4797 25.3699 20.1702 27.0134C20.5538 27.9236 21.3041 28.6686 22.2344 29.0298C22.6456 29.188 23.1026 29.3028 23.5864 29.3694C23.4123 33.2428 23.2147 37.2848 23.0347 39.5342C22.8962 41.227 22.7328 42.9385 22.7548 44.6383C22.7678 45.6539 22.7571 46.8649 23.4237 47.7164C24.1211 48.6061 25.592 48.1968 25.9892 47.1456C26.4347 45.9605 26.3051 44.5796 26.1534 42.4037C26.0011 40.2256 25.8296 37.2543 25.7351 35.6557C25.5968 33.3017 25.5486 31.2447 25.5353 29.3679C26.774 29.1909 27.9292 28.6594 28.5758 27.682C28.8594 27.2545 29.0462 26.7768 29.1737 26.2853C29.3694 25.5408 29.4648 24.7253 29.4225 23.9574C29.3795 23.2504 28.7985 17.7453 27.7573 18.1624Z" fill="white"/>
</svg>
