<svg width="30" height="31" viewBox="0 0 30 31" fill="none" xmlns="http://www.w3.org/2000/svg">
<g clip-path="url(#clip0_1_3506)">
<path d="M15.0001 0.986816C7.0471 0.986816 0.600098 7.43382 0.600098 15.3868C0.600098 23.3398 7.0471 29.7868 15.0001 29.7868C22.9531 29.7868 29.4001 23.3398 29.4001 15.3868C29.4001 7.43382 22.9531 0.986816 15.0001 0.986816ZM18.4111 10.9378H16.2466C15.9901 10.9378 15.7051 11.2753 15.7051 11.7238V13.2868H18.4126L18.0031 15.5158H15.7051V22.2073H13.1506V15.5158H10.8331V13.2868H13.1506V11.9758C13.1506 10.0948 14.4556 8.56632 16.2466 8.56632H18.4111V10.9378Z" fill="white"/>
</g>
<defs>
<clipPath id="clip0_1_3506">
<rect width="30" height="30" fill="white" transform="translate(0 0.386719)"/>
</clipPath>
</defs>
</svg>
