<svg width="30" height="31" viewBox="0 0 30 31" fill="none" xmlns="http://www.w3.org/2000/svg">
<g clip-path="url(#clip0_1_3508)">
<path d="M15.0001 0.986816C7.0471 0.986816 0.600098 7.43382 0.600098 15.3868C0.600098 23.3398 7.0471 29.7868 15.0001 29.7868C22.9531 29.7868 29.4001 23.3398 29.4001 15.3868C29.4001 7.43382 22.9531 0.986816 15.0001 0.986816ZM20.8576 12.7828C20.8636 12.9058 20.8651 13.0288 20.8651 13.1488C20.8651 16.8988 18.0136 21.2203 12.7966 21.2203C11.255 21.2229 9.74555 20.7801 8.4496 19.9453C8.6701 19.9723 8.8966 19.9828 9.1261 19.9828C10.4551 19.9828 11.6776 19.5313 12.6481 18.7693C12.0567 18.7577 11.4836 18.5619 11.0088 18.2091C10.5339 17.8563 10.181 17.3642 9.9991 16.8013C10.4238 16.8821 10.8614 16.8652 11.2786 16.7518C10.6367 16.622 10.0594 16.2742 9.64466 15.7673C9.22993 15.2604 9.00326 14.6257 9.0031 13.9708V13.9363C9.3856 14.1478 9.8236 14.2768 10.2886 14.2918C9.6868 13.8912 9.26078 13.2758 9.09767 12.5715C8.93456 11.8672 9.04668 11.1272 9.4111 10.5028C10.1235 11.3788 11.012 12.0954 12.019 12.6063C13.0259 13.1171 14.1289 13.4108 15.2566 13.4683C15.1132 12.8598 15.1749 12.2209 15.4321 11.6511C15.6893 11.0812 16.1275 10.6123 16.6787 10.3172C17.2299 10.0221 17.8631 9.9174 18.4799 10.0193C19.0968 10.1212 19.6627 10.4241 20.0896 10.8808C20.7244 10.7552 21.3331 10.5224 21.8896 10.1923C21.678 10.8495 21.2351 11.4076 20.6431 11.7628C21.2054 11.6951 21.7544 11.5439 22.2721 11.3143C21.8918 11.8842 21.4128 12.3815 20.8576 12.7828Z" fill="white"/>
</g>
<defs>
<clipPath id="clip0_1_3508">
<rect width="30" height="30" fill="white" transform="translate(0 0.386719)"/>
</clipPath>
</defs>
</svg>
