<svg width="30" height="31" viewBox="0 0 30 31" fill="none" xmlns="http://www.w3.org/2000/svg">
<g clip-path="url(#clip0_1_3510)">
<path d="M19.5001 15.3868C19.5001 16.5803 19.026 17.7249 18.1821 18.5688C17.3382 19.4127 16.1936 19.8868 15.0001 19.8868C13.8066 19.8868 12.662 19.4127 11.8181 18.5688C10.9742 17.7249 10.5001 16.5803 10.5001 15.3868C10.5001 15.1303 10.5271 14.8798 10.5736 14.6368H9.0001V20.6323C9.0001 21.0493 9.3376 21.3868 9.7546 21.3868H20.2471C20.4469 21.3864 20.6385 21.3068 20.7796 21.1653C20.9208 21.0238 21.0001 20.8322 21.0001 20.6323V14.6368H19.4266C19.4731 14.8798 19.5001 15.1303 19.5001 15.3868ZM15.0001 18.3868C15.3942 18.3867 15.7844 18.309 16.1484 18.1581C16.5124 18.0072 16.8432 17.7861 17.1217 17.5074C17.4003 17.2287 17.6213 16.8978 17.772 16.5337C17.9227 16.1696 18.0002 15.7794 18.0001 15.3853C18 14.9913 17.9223 14.6011 17.7714 14.237C17.6205 13.873 17.3994 13.5423 17.1207 13.2637C16.842 12.9851 16.5111 12.7642 16.147 12.6134C15.7829 12.4627 15.3927 12.3852 14.9986 12.3853C14.2028 12.3855 13.4396 12.7019 12.877 13.2647C12.3144 13.8276 11.9984 14.591 11.9986 15.3868C11.9988 16.1827 12.3151 16.9458 12.878 17.5084C13.4409 18.0711 14.2043 18.387 15.0001 18.3868ZM18.6001 12.2368H20.3986C20.5181 12.2368 20.6327 12.1895 20.7173 12.1051C20.802 12.0208 20.8497 11.9063 20.8501 11.7868V9.98832C20.8501 9.86857 20.8025 9.75373 20.7179 9.66906C20.6332 9.58438 20.5183 9.53682 20.3986 9.53682H18.6001C18.4804 9.53682 18.3655 9.58438 18.2808 9.66906C18.1962 9.75373 18.1486 9.86857 18.1486 9.98832V11.7868C18.1501 12.0343 18.3526 12.2368 18.6001 12.2368ZM15.0001 0.986816C11.181 0.986816 7.51828 2.50395 4.81776 5.20448C2.11724 7.905 0.600098 11.5677 0.600098 15.3868C0.600098 19.2059 2.11724 22.8686 4.81776 25.5692C7.51828 28.2697 11.181 29.7868 15.0001 29.7868C16.8911 29.7868 18.7637 29.4144 20.5107 28.6907C22.2578 27.967 23.8453 26.9063 25.1824 25.5692C26.5196 24.232 27.5803 22.6445 28.304 20.8975C29.0276 19.1504 29.4001 17.2779 29.4001 15.3868C29.4001 13.4958 29.0276 11.6233 28.304 9.87617C27.5803 8.12909 26.5196 6.54164 25.1824 5.20448C23.8453 3.86731 22.2578 2.80662 20.5107 2.08295C18.7637 1.35928 16.8911 0.986816 15.0001 0.986816ZM22.5001 21.2203C22.5001 22.1368 21.7501 22.8868 20.8336 22.8868H9.1666C8.2501 22.8868 7.5001 22.1368 7.5001 21.2203V9.55332C7.5001 8.63682 8.2501 7.88682 9.1666 7.88682H20.8336C21.7501 7.88682 22.5001 8.63682 22.5001 9.55332V21.2203Z" fill="white"/>
</g>
<defs>
<clipPath id="clip0_1_3510">
<rect width="30" height="30" fill="white" transform="translate(0 0.386719)"/>
</clipPath>
</defs>
</svg>
