<svg width="79" height="17" viewBox="0 0 79 17" fill="none" xmlns="http://www.w3.org/2000/svg">
<path d="M38.7003 8.92945V7.12158H26.8903V8.92945H29.2203C28.4303 10.198 27.1803 10.9371 25.5903 11.3366V13.2244C27.4103 12.8249 28.6903 12.2555 29.6703 11.4065H30.6103C29.7903 12.3654 28.5303 13.0746 27.2003 13.3742V15.0123C29.5303 14.5728 31.7303 13.4242 32.8903 11.4065H33.6503C32.5703 13.3742 30.8803 14.6028 28.9503 15.0622V16.7003C32.2003 16.121 34.5103 14.2432 35.6803 11.4065H36.0403V13.1545C36.0403 14.1034 35.6103 14.6128 34.6903 14.6128H33.5103V16.6304H34.8403C37.0303 16.6304 38.1803 15.7315 38.1803 13.7738V9.60866H31.1103C31.2303 9.38891 31.3503 9.16917 31.4703 8.92945H38.7003Z" fill="#4D4D4D"/>
<path d="M26.6101 8.66992C26.6101 7.38143 26.3001 6.49248 25.6901 5.4537C26.5401 3.18637 26.6201 2.44724 26.5901 0.279785H21.1201V16.6206H23.2101V11.2569H24.3401C25.9601 11.2569 26.6001 10.6476 26.6001 8.66992H26.6101ZM23.2101 8.89964V2.61704H24.4601C24.3001 3.74571 24.0301 4.48484 23.6801 5.50364C24.2301 6.35264 24.5701 7.18167 24.5701 7.86087C24.5701 8.71986 24.4001 8.89964 23.5301 8.89964H23.2101Z" fill="#4D4D4D"/>
<path d="M36.61 6.44253C37.24 6.44253 37.75 5.93313 37.75 5.30387V0.279785H27.71V6.44253H36.6H36.61ZM29.86 1.92785H35.63V2.68695H29.86V1.92785ZM29.86 4.06533H35.63V4.36498C35.63 4.62467 35.4199 4.84441 35.1499 4.84441H29.86V4.07532V4.06533Z" fill="#4D4D4D"/>
<path d="M60.49 2.42726H62.59V3.73572H60.66V16.6206H66.99C67.62 16.6206 68.13 16.1112 68.13 15.4819V3.73572H66.13V2.42726H68.31V0.279785H60.48V2.42726H60.49ZM65.78 9.94841H66.57V11.2469H62.26V10.7974C63.58 10.2481 64.03 9.80857 64.03 6.94195V5.74336H64.71V8.94959C64.71 9.50893 65.2 9.94841 65.77 9.94841H65.78ZM62.95 5.74336V6.6423C62.95 8.36028 62.78 8.55006 62.26 8.85969V5.74336H62.95ZM66.57 14.1335C66.57 14.3932 66.36 14.6129 66.09 14.6129H62.26V13.2545H66.57V14.1335ZM66.57 7.87085H66.17C65.94 7.87085 65.81 7.77097 65.81 7.48131V5.74336H66.57V7.87085ZM64.72 3.73572H64.01V2.42726H64.72V3.73572Z" fill="#4D4D4D"/>
<path d="M72.6701 4.34493H73.4901V5.93306C73.4901 7.10169 74.5501 7.93071 75.6401 7.93071H78.0501V5.94305H76.2601C75.8101 5.94305 75.3901 5.6434 75.3901 5.25386V4.33494H76.9401C77.6301 4.33494 78.0201 3.83553 77.7901 3.17631L76.6801 0.0200195H74.6701L75.3501 2.21743H72.0401L72.8401 0.0200195H70.7501L69.9501 2.21743H68.8901V4.33494H70.6701C70.4301 5.6434 69.6901 6.1528 68.6001 6.54235V8.63988C70.9401 8.00063 72.2401 7.06174 72.6701 4.33494V4.34493Z" fill="#4D4D4D"/>
<path d="M78.2301 14.5032C77.3101 14.4033 76.4401 14.1935 75.6601 13.8639C76.5501 12.8951 77.1501 11.7164 77.4301 10.3481V8.69999H73.3801C73.4601 8.41033 73.5301 8.12067 73.5801 7.81104H71.4801C71.0001 9.56897 69.9701 10.378 68.6001 10.8774V12.9849C69.4501 12.7952 70.2001 12.4855 70.8601 12.066C71.1501 12.7253 71.5301 13.3146 71.9801 13.834C70.9801 14.2934 69.8301 14.5931 68.6001 14.6929V16.7905C70.6401 16.6506 72.3901 16.1512 73.7901 15.3422C75.0501 16.1013 76.5601 16.5408 78.2301 16.6606V14.4932V14.5032ZM72.3901 10.6976H75.1601C74.9001 11.4468 74.4101 12.126 73.7601 12.7053C73.1501 12.1559 72.6801 11.4867 72.4001 10.6976H72.3901Z" fill="#4D4D4D"/>
<path d="M9.29996 9.04935C10.94 12.725 14.22 15.4818 18.33 16.9301V14.0435C15.11 12.6951 11.76 10.0682 10.76 6.14277H18.33V3.64571H10.56V0H7.97997V3.64571H0.209961V6.14277H7.76996C6.73996 10.1281 3.26996 12.8948 0.209961 14.0934V16.9301C4.40996 15.4318 7.66996 12.755 9.28996 9.04935H9.30996H9.29996Z" fill="#4D4D4D"/>
<path d="M41.3398 0.279785V16.6206H55.6898C56.6698 16.6206 57.4698 15.8315 57.4698 14.8427V0.279785H41.3398ZM55.0499 13.4543C55.0499 13.8239 54.7499 14.1235 54.3799 14.1235H43.7699V9.63877H55.0499V13.4443V13.4543ZM55.0499 7.14171H43.7699V2.77685H55.0499V7.14171Z" fill="#4D4D4D"/>
</svg>
