<svg width="106" height="15" viewBox="0 0 106 15" fill="none" xmlns="http://www.w3.org/2000/svg">
<path d="M7.17023 2.05511C6.39023 1.42585 5.19023 1.11621 3.57023 1.11621C3.10023 1.11621 2.59023 1.13619 2.05023 1.18613C1.51023 1.23607 1.05023 1.31598 0.670234 1.44582C0.460234 1.50575 0.290234 1.58566 0.170234 1.69553C0.0502344 1.8054 -0.00976562 1.95522 -0.00976562 2.145V11.0046C-0.00976562 11.5639 0.440234 12.0134 1.00023 12.0134C1.56023 12.0134 2.01023 11.5639 2.01023 11.0046V8.15793H3.67023C5.22023 8.15793 6.38023 7.8383 7.16023 7.18907C7.94023 6.53983 8.33023 5.68084 8.33023 4.6121C8.33023 3.54336 7.94023 2.68437 7.16023 2.05511H7.17023ZM5.58023 6.15029C5.09023 6.48989 4.41023 6.65969 3.55023 6.65969H2.00023V2.73431C2.22023 2.69435 2.48023 2.67438 2.76023 2.64441C3.04023 2.62444 3.32023 2.60446 3.61023 2.60446C4.48023 2.60446 5.15023 2.76427 5.62023 3.0839C6.09023 3.40352 6.32023 3.90293 6.32023 4.59212C6.32023 5.28131 6.07023 5.79071 5.58023 6.1403V6.15029Z" fill="black"/>
<path d="M15.6102 4.1923L15.5902 4.06245C15.5502 3.75282 15.3002 3.5131 14.9902 3.49312C14.8002 3.47314 14.6102 3.47314 14.4202 3.47314C13.3002 3.47314 12.2202 3.72285 11.2302 4.18231C10.7502 4.40205 10.4302 4.8715 10.4302 5.40088V10.9943C10.4302 11.5037 10.8002 11.9632 11.3002 12.0131C11.8802 12.073 12.3702 11.6136 12.3702 11.0442V5.70052C12.3702 5.56069 12.4602 5.42085 12.5902 5.37091C13.3302 5.10123 14.1102 4.95141 14.9202 4.95141C15.3402 4.95141 15.6402 4.6118 15.5902 4.20229L15.6102 4.1923Z" fill="black"/>
<path d="M22.2003 10.5548C21.4103 10.5548 20.7703 10.395 20.2703 10.0854C19.7603 9.77573 19.4203 9.2863 19.2503 8.63707L24.7103 7.91792C25.0003 7.87796 25.2103 7.78807 25.3603 7.64823C25.5103 7.51839 25.5903 7.30863 25.5903 7.01897C25.5903 6.49958 25.4903 6.03014 25.3003 5.60064C25.1103 5.16116 24.8303 4.79159 24.4803 4.48196C24.1203 4.17232 23.7003 3.92262 23.2103 3.74283C22.7203 3.56304 22.1703 3.47314 21.5703 3.47314C20.9703 3.47314 20.4103 3.56304 19.8903 3.75282C19.3703 3.9326 18.9103 4.20229 18.5203 4.55188C18.1303 4.90146 17.8303 5.33096 17.6003 5.85035C17.3703 6.36974 17.2603 6.96903 17.2603 7.65822C17.2603 8.34741 17.3803 8.98666 17.6103 9.52602C17.8403 10.0654 18.1703 10.5149 18.5903 10.8844C19.0103 11.254 19.5203 11.5237 20.1103 11.7035C20.7003 11.8833 21.3603 11.9731 22.0803 11.9731C22.3303 11.9731 22.7703 11.9632 23.1603 11.9432C23.5503 11.9232 23.8603 11.5736 23.8303 11.1841C23.8003 10.7945 23.4703 10.5049 23.0803 10.5248C22.7403 10.5448 22.3803 10.5548 22.1903 10.5548H22.2003ZM19.8503 5.50076C20.3003 5.08125 20.8703 4.8715 21.5603 4.8715C22.2503 4.8715 22.7503 5.05129 23.1103 5.41086C23.4703 5.77044 23.6803 6.20992 23.7303 6.71933L19.1303 7.31862C19.1503 6.52955 19.3903 5.92027 19.8503 5.50076Z" fill="black"/>
<path d="M33.4101 8.16789C32.9901 7.74838 32.3201 7.37882 31.4001 7.07917L30.3401 6.73957C29.9401 6.61971 29.6601 6.46988 29.5001 6.31007C29.3401 6.15026 29.2701 5.9505 29.2901 5.73075C29.3101 5.43111 29.4801 5.21137 29.7901 5.07153C30.1001 4.93169 30.5201 4.88175 31.0401 4.92171C31.5601 4.96166 32.0201 5.07153 32.4501 5.26131C32.4801 5.27129 32.5101 5.28128 32.5401 5.30126C32.8801 5.45108 33.2701 5.30126 33.4401 4.98164L33.4701 4.93169C33.6401 4.59209 33.5101 4.19256 33.1901 4.02276C32.9301 3.89292 32.6201 3.78305 32.2601 3.69315C31.9001 3.60326 31.4901 3.53334 31.0501 3.50337C30.4901 3.46342 29.9901 3.4834 29.5401 3.5633C29.1001 3.64321 28.7201 3.78305 28.4101 3.97282C28.1001 4.1626 27.8601 4.39233 27.6901 4.672C27.5201 4.95167 27.4201 5.25132 27.3901 5.58093C27.3401 6.2002 27.5001 6.69961 27.8701 7.07917C28.2401 7.46871 28.8401 7.78833 29.6701 8.068L30.9101 8.47752C31.3001 8.59738 31.5901 8.75719 31.7801 8.93698C31.9701 9.12676 32.0601 9.35649 32.0301 9.64615C32.0001 9.97576 31.8301 10.2155 31.5201 10.3753C31.2101 10.5251 30.7701 10.585 30.2101 10.5351C29.6101 10.4852 29.1001 10.3653 28.6601 10.1555C28.5801 10.1156 28.5101 10.0856 28.4401 10.0457C28.0901 9.86589 27.6501 9.99574 27.4601 10.3453C27.2601 10.7049 27.3801 11.1644 27.7401 11.3541C27.7501 11.3541 27.7601 11.3641 27.7701 11.3741C28.0501 11.5239 28.4001 11.6438 28.8001 11.7437C29.2001 11.8436 29.6501 11.9135 30.1301 11.9534C31.3101 12.0433 32.2301 11.9035 32.8901 11.514C33.5501 11.1344 33.9001 10.5551 33.9701 9.79597C34.0201 9.13675 33.8401 8.59738 33.4201 8.17788L33.4101 8.16789Z" fill="black"/>
<path d="M40.6402 10.5548C39.8502 10.5548 39.2102 10.395 38.7102 10.0854C38.2002 9.77573 37.8602 9.2863 37.6902 8.63707L43.1502 7.91792C43.4402 7.87796 43.6502 7.78807 43.8002 7.64823C43.9502 7.51839 44.0302 7.30863 44.0302 7.01897C44.0302 6.49958 43.9302 6.03014 43.7402 5.60064C43.5502 5.16116 43.2702 4.79159 42.9202 4.48196C42.5602 4.17232 42.1402 3.92262 41.6502 3.74283C41.1602 3.56304 40.6102 3.47314 40.0102 3.47314C39.4102 3.47314 38.8502 3.56304 38.3302 3.75282C37.8102 3.9326 37.3502 4.20229 36.9602 4.55188C36.5702 4.90146 36.2702 5.33096 36.0402 5.85035C35.8102 6.36974 35.7002 6.96903 35.7002 7.65822C35.7002 8.34741 35.8202 8.98666 36.0502 9.52602C36.2802 10.0654 36.6102 10.5149 37.0302 10.8844C37.4502 11.254 37.9602 11.5237 38.5502 11.7035C39.1402 11.8833 39.8002 11.9731 40.5202 11.9731C40.7702 11.9731 41.2102 11.9632 41.6002 11.9432C41.9902 11.9232 42.3002 11.5736 42.2702 11.1841C42.2402 10.7945 41.9102 10.5049 41.5202 10.5248C41.1802 10.5448 40.8202 10.5548 40.6302 10.5548H40.6402ZM38.2902 5.50076C38.7402 5.08125 39.3102 4.8715 40.0002 4.8715C40.6902 4.8715 41.1902 5.05129 41.5502 5.41086C41.9102 5.77044 42.1202 6.20992 42.1702 6.71933L37.5702 7.31862C37.5902 6.52955 37.8302 5.92027 38.2902 5.50076Z" fill="black"/>
<path d="M47.1401 12.0131C47.6801 12.0131 48.1201 11.5736 48.1201 11.0342V6.54953C48.1201 5.99018 48.2901 5.58067 48.6301 5.31098C48.9701 5.05129 49.4401 4.92144 50.0201 4.92144C50.6001 4.92144 51.0701 5.05129 51.4101 5.31098C51.7501 5.57068 51.9201 5.99018 51.9201 6.54953V11.0342C51.9201 11.5736 52.3601 12.0131 52.9001 12.0131C53.4401 12.0131 53.8801 11.5736 53.8801 11.0342V6.47961C53.8801 5.47079 53.5401 4.72168 52.8501 4.22226C52.1601 3.72285 51.2201 3.47314 50.0101 3.47314C48.8001 3.47314 47.8501 3.72285 47.1701 4.22226C46.4801 4.72168 46.1401 5.47079 46.1401 6.47961V11.0342C46.1401 11.5736 46.5801 12.0131 47.1201 12.0131H47.1401Z" fill="black"/>
<path d="M60.4403 10.5152C60.4403 10.5152 60.3403 10.5152 60.3003 10.5152C59.8303 10.5152 59.1003 10.4253 58.8403 10.2555C58.5803 10.0857 58.4503 9.79607 58.4503 9.38655V5.31135H60.5003C60.8903 5.31135 61.2103 4.99172 61.2103 4.60218C61.2103 4.21264 60.8903 3.89302 60.5003 3.89302H58.4503V2.34484C58.4503 1.80547 58.0103 1.37598 57.4803 1.37598C56.9403 1.37598 56.5103 1.81546 56.5103 2.34484V9.5164C56.5103 10.3954 56.7903 11.0246 57.3403 11.4142C57.8903 11.7937 59.0003 11.9835 59.9303 11.9835C60.1803 11.9835 60.4003 11.9735 60.6003 11.9435C61.0903 11.8836 61.3803 11.3343 61.1303 10.8748C61.0003 10.6351 60.7203 10.5052 60.4503 10.5152H60.4403Z" fill="black"/>
<path d="M68.0401 10.5548C67.2501 10.5548 66.6101 10.395 66.1101 10.0854C65.6001 9.77573 65.2601 9.2863 65.0901 8.63707L70.5501 7.91792C70.8401 7.87796 71.0501 7.78807 71.2001 7.64823C71.3501 7.51839 71.4301 7.30863 71.4301 7.01897C71.4301 6.49958 71.3301 6.03014 71.1401 5.60064C70.9501 5.16116 70.6701 4.79159 70.3201 4.48196C69.9601 4.17232 69.5401 3.92262 69.0501 3.74283C68.5601 3.56304 68.0101 3.47314 67.4101 3.47314C66.8101 3.47314 66.2501 3.56304 65.7301 3.75282C65.2101 3.9326 64.7501 4.20229 64.3601 4.55188C63.9701 4.90146 63.6701 5.33096 63.4401 5.85035C63.2101 6.36974 63.1001 6.96903 63.1001 7.65822C63.1001 8.34741 63.2201 8.98666 63.4501 9.52602C63.6801 10.0654 64.0101 10.5149 64.4301 10.8844C64.8501 11.254 65.3601 11.5237 65.9501 11.7035C66.5401 11.8833 67.2001 11.9731 67.9201 11.9731C68.1701 11.9731 68.6101 11.9632 69.0001 11.9432C69.3901 11.9232 69.7001 11.5736 69.6701 11.1841C69.6401 10.7945 69.3101 10.5049 68.9201 10.5248C68.5801 10.5448 68.2201 10.5548 68.0301 10.5548H68.0401ZM65.6901 5.50076C66.1401 5.08125 66.7101 4.8715 67.4001 4.8715C68.0901 4.8715 68.5901 5.05129 68.9501 5.41086C69.3101 5.77044 69.5201 6.20992 69.5701 6.71933L64.9701 7.31862C64.9901 6.52955 65.2301 5.92027 65.6901 5.50076Z" fill="black"/>
<path d="M79.2804 1.39584V3.87293C79.0304 3.76306 78.7405 3.66317 78.4105 3.59326C78.0805 3.52334 77.7304 3.48338 77.3504 3.48338C76.7404 3.48338 76.1704 3.56329 75.6404 3.73309C75.1104 3.90289 74.6505 4.1526 74.2505 4.50219C73.8505 4.85177 73.5404 5.30125 73.3104 5.84061C73.0804 6.37998 72.9604 7.02921 72.9604 7.76834C72.9604 8.50747 73.0705 9.11676 73.3005 9.64613C73.5205 10.1755 73.8405 10.615 74.2505 10.9646C74.6605 11.3142 75.1605 11.5739 75.7505 11.7337C76.3405 11.9035 76.9804 11.9834 77.7004 11.9834C78.3304 11.9834 78.9004 11.9135 79.3904 11.7836C79.8804 11.6438 80.2704 11.494 80.5604 11.3242C80.8004 11.1843 80.9705 11.0445 81.0805 10.8847C81.1905 10.7349 81.2505 10.5351 81.2505 10.2954V1.39584C81.2505 0.856475 80.8104 0.416992 80.2704 0.416992C79.7304 0.416992 79.2905 0.856475 79.2905 1.39584H79.2804ZM79.3005 10.1455C79.1005 10.2454 78.8705 10.3353 78.6205 10.4152C78.3705 10.4951 78.0505 10.5251 77.6805 10.5251C76.8605 10.5251 76.2004 10.3054 75.7104 9.87586C75.2204 9.43638 74.9705 8.74719 74.9705 7.78832C74.9705 7.27892 75.0405 6.83944 75.1805 6.47986C75.3205 6.12028 75.5004 5.82063 75.7404 5.59091C75.9804 5.36118 76.2504 5.19138 76.5704 5.0815C76.8904 4.98162 77.2305 4.93168 77.6105 4.93168C77.9605 4.93168 78.2804 4.98162 78.5604 5.07152C78.8504 5.16141 79.1004 5.27128 79.3104 5.40113V10.1655L79.3005 10.1455Z" fill="black"/>
<path d="M88.6201 0.406961C88.0801 0.406961 87.6401 0.846444 87.6401 1.38581V10.2754C87.6401 10.5151 87.7001 10.7148 87.8101 10.8647C87.9201 11.0145 88.1001 11.1643 88.3301 11.3041C88.6201 11.4739 89.0101 11.6338 89.5001 11.7636C89.9901 11.9034 90.5601 11.9634 91.1901 11.9634C91.9001 11.9634 92.5501 11.8835 93.1401 11.7137C93.7301 11.5439 94.2301 11.2942 94.6401 10.9446C95.0501 10.595 95.3701 10.1555 95.5901 9.62611C95.8201 9.09674 95.9301 8.46748 95.9301 7.74832C95.9301 7.00919 95.8101 6.35996 95.5801 5.82059C95.3501 5.28123 95.0301 4.83175 94.6401 4.48217C94.2401 4.13258 93.7801 3.88287 93.2501 3.71307C92.7201 3.54327 92.1501 3.46336 91.5401 3.46336C91.1701 3.46336 90.8101 3.50332 90.4801 3.57324C90.1501 3.64315 89.8601 3.74304 89.6101 3.85291V1.37582C89.6101 0.836456 89.1701 0.396973 88.6301 0.396973L88.6201 0.406961ZM89.5801 5.38111C89.7901 5.26125 90.0401 5.15138 90.3301 5.0515C90.6201 4.9616 90.9301 4.91166 91.2801 4.91166C91.6501 4.91166 92.0001 4.9616 92.3201 5.06148C92.6401 5.16137 92.9201 5.33117 93.1501 5.57089C93.3801 5.8106 93.5701 6.10026 93.7101 6.45984C93.8501 6.81942 93.9201 7.2589 93.9201 7.7683C93.9201 8.72717 93.6701 9.42635 93.1801 9.85584C92.6901 10.2853 92.0301 10.5051 91.2101 10.5051C90.8401 10.5051 90.5201 10.4651 90.2701 10.3952C90.0201 10.3253 89.7901 10.2354 89.5901 10.1255V5.36113L89.5801 5.38111Z" fill="black"/>
<path d="M104.86 3.72284H104.84C104.33 3.61297 103.82 3.9226 103.69 4.42202C103.6 4.76162 103.5 5.10122 103.43 5.35092C103.27 5.92025 103.09 6.46961 102.91 7.01896C102.72 7.56831 102.53 8.0877 102.34 8.57713C102.15 9.06655 101.96 9.49605 101.77 9.86561L101.72 9.93553L99.2003 4.06244C99.1003 3.83271 98.9203 3.65292 98.6903 3.56303C98.4603 3.47313 98.2003 3.47313 97.9703 3.56303C97.5003 3.76279 97.2703 4.32213 97.4703 4.79158L100.48 11.9032C100.48 11.9032 100.48 11.9032 100.48 11.9132C100.27 12.1929 100.04 12.4626 99.8103 12.7322C99.6603 12.892 99.5103 13.0519 99.1903 13.3515C98.7703 13.7311 98.7803 14.4003 99.2203 14.7599C99.5703 15.0495 100.07 15.0595 100.42 14.7798C100.82 14.4602 100.96 14.3304 101.1 14.1905C101.6 13.6711 102.17 12.902 102.79 11.8932C103.14 11.3139 103.49 10.6447 103.84 9.88559C104.19 9.13647 104.5 8.38735 104.77 7.64822C105.04 6.90909 105.27 6.23988 105.43 5.63059C105.49 5.39088 105.56 5.13118 105.62 4.88147C105.74 4.3521 105.4 3.83271 104.88 3.71285L104.86 3.72284Z" fill="black"/>
</svg>
