<svg width="14" height="14" viewBox="0 0 14 14" fill="none" xmlns="http://www.w3.org/2000/svg">
<path d="M8.04331 0.641685C8.19331 0.83613 8.273 1.05002 8.28238 1.28335C8.29175 1.51669 8.21206 1.72085 8.04331 1.89585L3.09331 7.02919L8.07144 12.1917C8.22144 12.3472 8.29175 12.5563 8.28238 12.8188C8.273 13.0813 8.19331 13.2903 8.04331 13.4459C7.85581 13.6403 7.65425 13.7327 7.43863 13.7229C7.223 13.7132 7.03081 13.6209 6.86206 13.4459L1.26519 7.64169C1.17144 7.54447 1.10581 7.44724 1.06831 7.35002C1.03081 7.2528 1.01206 7.14585 1.01206 7.02919C1.01206 6.91252 1.03081 6.80558 1.06831 6.70835C1.10581 6.61113 1.17144 6.51391 1.26519 6.41669L6.83394 0.641685C7.00269 0.466685 7.19956 0.384048 7.42456 0.393769C7.64956 0.403492 7.85581 0.48613 8.04331 0.641685Z" fill="#1F2937" fill-opacity="0.35"/>
<path d="M13.0433 0.641685C13.1933 0.83613 13.273 1.05002 13.2824 1.28335C13.2918 1.51669 13.2121 1.72085 13.0433 1.89585L8.09331 7.02919L13.0714 12.1917C13.2214 12.3472 13.2918 12.5563 13.2824 12.8188C13.273 13.0813 13.1933 13.2903 13.0433 13.4459C12.8558 13.6403 12.6543 13.7327 12.4386 13.7229C12.223 13.7132 12.0308 13.6209 11.8621 13.4459L6.26519 7.64169C6.17144 7.54447 6.10581 7.44724 6.06831 7.35002C6.03081 7.2528 6.01206 7.14585 6.01206 7.02919C6.01206 6.91252 6.03081 6.80558 6.06831 6.70835C6.10581 6.61113 6.17144 6.51391 6.26519 6.41669L11.8339 0.641685C12.0027 0.466685 12.1996 0.384048 12.4246 0.393769C12.6496 0.403492 12.8558 0.48613 13.0433 0.641685Z" fill="#1F2937" fill-opacity="0.35"/>
</svg>
