<svg width="126" height="100" viewBox="0 0 126 100" fill="none" xmlns="http://www.w3.org/2000/svg">
<g clip-path="url(#clip0_162_282)">
<path d="M47.4301 19.8941C52.8842 19.8941 57.3056 15.4407 57.3056 9.94707C57.3056 4.45345 52.8842 0 47.4301 0C41.9761 0 37.5547 4.45345 37.5547 9.94707C37.5547 15.4407 41.9761 19.8941 47.4301 19.8941Z" fill="#E50012"/>
<path d="M92.8616 34.5895C96.2016 34.5895 98.9092 31.8622 98.9092 28.498C98.9092 25.1337 96.2016 22.4065 92.8616 22.4065C89.5216 22.4065 86.814 25.1337 86.814 28.498C86.814 31.8622 89.5216 34.5895 92.8616 34.5895Z" fill="#E50012"/>
<path d="M35.6485 38.0027C40.3748 38.0027 44.2062 34.1435 44.2062 29.3829C44.2062 24.6224 40.3748 20.7632 35.6485 20.7632C30.9222 20.7632 27.0908 24.6224 27.0908 29.3829C27.0908 34.1435 30.9222 38.0027 35.6485 38.0027Z" fill="#004DA0"/>
<path d="M79.0253 13.2811C82.5863 13.2811 85.473 10.3734 85.473 6.78667C85.473 3.19989 82.5863 0.292236 79.0253 0.292236C75.4644 0.292236 72.5776 3.19989 72.5776 6.78667C72.5776 10.3734 75.4644 13.2811 79.0253 13.2811Z" fill="#004DA0"/>
<path d="M62.3098 22.367C65.104 22.367 67.3691 20.0855 67.3691 17.271C67.3691 14.4566 65.104 12.175 62.3098 12.175C59.5156 12.175 57.2505 14.4566 57.2505 17.271C57.2505 20.0855 59.5156 22.367 62.3098 22.367Z" fill="#FBC600"/>
<path d="M77.1662 33.9733C82.5206 33.9733 86.8613 29.6012 86.8613 24.208C86.8613 18.8147 82.5206 14.4426 77.1662 14.4426C71.8118 14.4426 67.4712 18.8147 67.4712 24.208C67.4712 29.6012 71.8118 33.9733 77.1662 33.9733Z" fill="#751484"/>
<path d="M63.0002 65.2603C66.5958 65.2603 69.5106 62.3243 69.5106 58.7027C69.5106 55.081 66.5958 52.145 63.0002 52.145C59.4046 52.145 56.4897 55.081 56.4897 58.7027C56.4897 62.3243 59.4046 65.2603 63.0002 65.2603Z" fill="#E4005A"/>
<path d="M65.126 50.7387C68.1628 50.7387 70.6246 48.2591 70.6246 45.2003C70.6246 42.1415 68.1628 39.6619 65.126 39.6619C62.0892 39.6619 59.6274 42.1415 59.6274 45.2003C59.6274 48.2591 62.0892 50.7387 65.126 50.7387Z" fill="#00B8EE"/>
<path d="M76.8915 46.6935C80.1189 46.6935 82.7352 44.0582 82.7352 40.8075C82.7352 37.5567 80.1189 34.9214 76.8915 34.9214C73.6642 34.9214 71.0479 37.5567 71.0479 40.8075C71.0479 44.0582 73.6642 46.6935 76.8915 46.6935Z" fill="#8DC21F"/>
<path d="M67.471 11.9224C69.6761 11.9224 71.4636 10.1219 71.4636 7.90088C71.4636 5.67988 69.6761 3.87939 67.471 3.87939C65.266 3.87939 63.4785 5.67988 63.4785 7.90088C63.4785 10.1219 65.266 11.9224 67.471 11.9224Z" fill="#00B8EE"/>
<path d="M41.7982 51.2681C45.4891 51.2681 48.4812 48.2543 48.4812 44.5366C48.4812 40.8189 45.4891 37.8052 41.7982 37.8052C38.1073 37.8052 35.1152 40.8189 35.1152 44.5366C35.1152 48.2543 38.1073 51.2681 41.7982 51.2681Z" fill="#EF8200"/>
<path d="M90.2026 18.8197C92.5549 18.8197 94.4618 16.899 94.4618 14.5296C94.4618 12.1603 92.5549 10.2395 90.2026 10.2395C87.8503 10.2395 85.9434 12.1603 85.9434 14.5296C85.9434 16.899 87.8503 18.8197 90.2026 18.8197Z" fill="#EF8200"/>
<path d="M88.8457 46.0378C91.7438 46.0378 94.0932 43.6713 94.0932 40.7522C94.0932 37.833 91.7438 35.4666 88.8457 35.4666C85.9475 35.4666 83.5981 37.833 83.5981 40.7522C83.5981 43.6713 85.9475 46.0378 88.8457 46.0378Z" fill="#00AB9F"/>
<path d="M74.7658 56.0954C76.6762 56.0954 78.2249 54.5355 78.2249 52.6112C78.2249 50.6869 76.6762 49.127 74.7658 49.127C72.8554 49.127 71.3066 50.6869 71.3066 52.6112C71.3066 54.5355 72.8554 56.0954 74.7658 56.0954Z" fill="#FBC600"/>
<path d="M49.3517 58.4895C51.2622 58.4895 52.8109 56.9295 52.8109 55.0052C52.8109 53.0809 51.2622 51.521 49.3517 51.521C47.4413 51.521 45.8926 53.0809 45.8926 55.0052C45.8926 56.9295 47.4413 58.4895 49.3517 58.4895Z" fill="#751484"/>
<path d="M67.1729 36.4304C68.8667 36.4304 70.2399 35.0473 70.2399 33.3412C70.2399 31.635 68.8667 30.252 67.1729 30.252C65.4791 30.252 64.106 31.635 64.106 33.3412C64.106 35.0473 65.4791 36.4304 67.1729 36.4304Z" fill="#EF8200"/>
<path d="M82.7039 51.9C84.2288 51.9 85.465 50.6549 85.465 49.119C85.465 47.583 84.2288 46.3379 82.7039 46.3379C81.179 46.3379 79.9429 47.583 79.9429 49.119C79.9429 50.6549 81.179 51.9 82.7039 51.9Z" fill="#004DA0"/>
<path d="M33.5229 19.3649C35.5329 19.3649 37.1624 17.7236 37.1624 15.6989C37.1624 13.6743 35.5329 12.033 33.5229 12.033C31.5128 12.033 29.8833 13.6743 29.8833 15.6989C29.8833 17.7236 31.5128 19.3649 33.5229 19.3649Z" fill="#8DC21F"/>
<path d="M99.7092 84.9094C98.9797 84.7119 98.2895 84.1905 97.7718 83.7401C97.2541 83.2898 96.854 82.7367 96.556 82.0651C96.2657 81.4015 96.1167 80.6272 96.1167 79.7423C96.1167 78.8574 96.2579 78.1385 96.5403 77.4985C96.8226 76.8585 97.207 76.3292 97.7012 75.9025C98.1875 75.4759 98.7522 75.152 99.3954 74.9466C100.039 74.7411 100.721 74.6384 101.443 74.6384C102.164 74.6384 102.847 74.749 103.466 74.9624C104.078 75.1757 104.604 75.4759 105.043 75.8551C105.474 76.2344 105.82 76.6926 106.063 77.222C106.306 77.7513 106.431 78.336 106.431 78.9522C106.431 79.3394 106.322 79.6317 106.102 79.8213C105.882 80.0188 105.584 80.1374 105.192 80.1927L98.9483 81.0222C99.1601 81.7254 99.5445 82.239 100.117 82.555C100.117 82.555 101.184 83.1239 103.71 83.1081C104.361 83.1081 104.855 83.7006 104.729 84.3406C104.635 84.7909 104.259 85.1306 103.804 85.1622C102.823 85.2334 101.098 85.2729 99.7092 84.9015V84.9094ZM101.443 76.6136C100.705 76.6136 100.094 76.8348 99.5994 77.2852C99.1052 77.7355 98.8307 78.3755 98.7679 79.2051L103.757 78.5177C103.694 78.0042 103.482 77.5617 103.106 77.1825C102.729 76.8032 102.18 76.6136 101.443 76.6136Z" fill="black"/>
<path d="M22.9648 76.8428C22.9648 76.0312 22.3116 75.3733 21.5058 75.3733C20.7001 75.3733 20.0469 76.0312 20.0469 76.8428V83.7955C20.0469 84.6071 20.7001 85.265 21.5058 85.265C22.3116 85.265 22.9648 84.6071 22.9648 83.7955V76.8428Z" fill="black"/>
<path d="M115.295 72.2762C115.295 71.4646 114.642 70.8066 113.836 70.8066C113.03 70.8066 112.377 71.4646 112.377 72.2762V83.7955C112.377 84.6071 113.03 85.265 113.836 85.265C114.642 85.265 115.295 84.6071 115.295 83.7955V72.2762Z" fill="black"/>
<path d="M125.5 72.2762C125.5 71.4646 124.847 70.8066 124.041 70.8066C123.235 70.8066 122.582 71.4646 122.582 72.2762V83.7955C122.582 84.6071 123.235 85.265 124.041 85.265C124.847 85.265 125.5 84.6071 125.5 83.7955V72.2762Z" fill="black"/>
<path d="M10.8147 83.0765L8.40659 79.7977C9.17529 79.4579 9.79496 78.9997 10.2499 78.4071C10.7441 77.7672 10.9951 77.0087 10.9951 76.1317C10.9951 74.8044 10.5009 73.7615 9.51258 73.0109C8.52425 72.2603 7.04176 71.8811 5.0651 71.8811C4.37484 71.8811 3.70811 71.9127 3.05707 71.9759C2.40603 72.0391 1.84127 72.1418 1.36279 72.2998C1.0961 72.3868 0.884319 72.4974 0.735285 72.6317C0.586251 72.7739 0.507812 72.9714 0.507812 73.2321V83.7876C0.507812 84.6013 1.15885 85.2571 1.96677 85.2571C2.77469 85.2571 3.42573 84.6013 3.42573 83.7876V80.3744H5.5122L8.68113 84.6803C9.12039 85.2729 9.95184 85.3993 10.5401 84.9569C11.1363 84.5144 11.2539 83.6769 10.8225 83.0765H10.8147ZM5.22198 78.2491H3.42573V74.1723C3.65321 74.1486 3.89637 74.117 4.15521 74.0933C4.42975 74.0696 4.71997 74.0538 5.01804 74.0538C7.04176 74.0538 8.05362 74.757 8.05362 76.1475C8.05362 76.8507 7.79477 77.38 7.27708 77.7277C6.75938 78.0753 6.07696 78.2491 5.22198 78.2491Z" fill="black"/>
<path d="M21.4353 74.1406C22.3407 74.1406 23.0746 73.4014 23.0746 72.4894C23.0746 71.5774 22.3407 70.8381 21.4353 70.8381C20.5299 70.8381 19.7959 71.5774 19.7959 72.4894C19.7959 73.4014 20.5299 74.1406 21.4353 74.1406Z" fill="black"/>
<path d="M60.474 76.0922C60.3171 75.8867 60.1053 75.6971 59.8308 75.5312C59.4386 75.2942 58.9209 75.0888 58.2698 74.9071C57.6188 74.7253 56.905 74.6384 56.1206 74.6384C55.297 74.6384 54.544 74.7411 53.8773 74.9466C53.2027 75.152 52.6223 75.468 52.1359 75.8788C51.6496 76.2976 51.2731 76.8111 51.0143 77.4274C50.7554 78.0437 50.6221 78.7547 50.6221 79.5527C50.6221 80.4376 50.7554 81.1882 51.0143 81.8044C51.2731 82.4207 51.6339 82.9263 52.081 83.3135C52.5281 83.7006 53.0537 83.985 53.6498 84.151C54.2459 84.3248 54.8891 84.4117 55.5559 84.4117C56.0814 84.4117 56.5442 84.3643 56.9364 84.2695C57.3364 84.1747 57.6816 84.0561 57.9796 83.9139V84.8067C57.9796 84.8067 57.9796 84.8541 57.9796 85.4151C57.9796 86.0392 57.4698 86.5528 56.8501 86.5528H53.1556C52.5203 86.5528 52.0026 87.0742 52.0026 87.7142C52.0026 88.3542 52.5203 88.8756 53.1556 88.8756H56.7403C58.9287 88.8756 60.7014 87.09 60.7014 84.8857V76.8743C60.7014 76.5583 60.623 76.2897 60.4661 76.0843L60.474 76.0922ZM57.9482 81.8202C57.7208 81.9703 57.4541 82.1046 57.1482 82.2153C56.8423 82.3259 56.4736 82.3812 56.0343 82.3812C55.6735 82.3812 55.3362 82.3338 55.0225 82.239C54.7087 82.1442 54.4342 81.9861 54.1989 81.7649C53.9636 81.5437 53.7831 81.2514 53.6576 80.8958C53.5321 80.5324 53.4694 80.09 53.4694 79.5685C53.4694 78.5967 53.7204 77.8856 54.2224 77.4195C54.7244 76.9533 55.3833 76.7242 56.2069 76.7242C56.5991 76.7242 56.9285 76.7637 57.2031 76.8506C57.4776 76.9296 57.7208 77.0324 57.9326 77.143V81.836L57.9482 81.8202Z" fill="black"/>
<path d="M40.6373 75.5865C39.7901 74.9545 38.5979 74.6384 37.0526 74.6384C35.5074 74.6384 34.3151 74.9545 33.468 75.5865C32.6208 76.2186 32.1973 77.143 32.1973 78.3597V83.8112C32.1973 84.6013 32.8326 85.2334 33.6092 85.2334C34.3857 85.2334 35.0211 84.5934 35.0211 83.8112V78.4387C35.0211 77.8461 35.2015 77.4116 35.5701 77.1351C35.9309 76.8585 36.4251 76.7242 37.0448 76.7242C37.6644 76.7242 38.1508 76.8664 38.5194 77.1351C38.8881 77.4116 39.0685 77.8461 39.0685 78.4387V83.8112C39.0685 84.6013 39.7039 85.2334 40.4804 85.2334C41.2569 85.2334 41.8923 84.5934 41.8923 83.8112V78.3597C41.8923 77.143 41.4687 76.2186 40.6216 75.5865H40.6373Z" fill="black"/>
<path d="M87.8492 71.9048C87.0648 71.9048 86.4373 72.5447 86.4373 73.3269V81.7175C86.4373 82.3101 86.2569 82.7446 85.8882 83.0212C85.5274 83.2977 85.0332 83.432 84.4136 83.432C83.7939 83.432 83.3076 83.2898 82.9389 83.0212C82.5703 82.7446 82.3899 82.3101 82.3899 81.7175V73.3269C82.3899 72.5368 81.7545 71.9048 80.978 71.9048C80.2014 71.9048 79.5661 72.5447 79.5661 73.3269V81.7175C79.5661 82.3101 79.3856 82.7446 79.017 83.0212C78.6562 83.2977 78.162 83.432 77.5423 83.432C76.9227 83.432 76.4363 83.2898 76.0677 83.0212C75.699 82.7446 75.5186 82.3101 75.5186 81.7175V73.3269C75.5186 72.5368 74.8833 71.9048 74.1067 71.9048C73.3302 71.9048 72.6948 72.5447 72.6948 73.3269V81.7965C72.6948 83.0133 73.1184 83.9377 73.9655 84.5697C74.8127 85.2018 76.0049 85.5178 77.5502 85.5178C79.0091 85.5178 80.1543 85.2334 80.9858 84.6724C81.8251 85.2334 82.9625 85.5178 84.4214 85.5178C85.9667 85.5178 87.1589 85.2018 88.0061 84.5697C88.8532 83.9377 89.2768 83.0133 89.2768 81.7965V73.3269C89.2768 72.5368 88.6414 71.9048 87.8649 71.9048H87.8492Z" fill="black"/>
<path d="M43.7435 94.114C43.7278 94.2246 43.7174 94.4748 43.7121 94.8646V96.4052C43.7121 96.8003 43.7121 97.0373 43.7435 97.2506H42.9277C42.9591 96.9662 42.9591 96.8082 42.9591 96.4052V94.8646C42.9591 94.5011 42.9591 94.3273 42.9277 94.114H43.7435ZM46.8654 94.1298C46.8418 94.351 46.834 94.4537 46.834 94.9041V95.6626C46.834 96.7687 46.7791 97.377 46.6536 97.8037C46.4575 98.4752 46.0025 99.0125 45.3044 99.4075C44.9515 99.605 44.6142 99.7394 43.9867 99.929C43.8768 99.6367 43.8141 99.526 43.5709 99.2258C44.269 99.0836 44.5985 98.973 44.9593 98.7518C45.5633 98.3962 45.8849 97.9617 46.0025 97.3375C46.0653 97.0136 46.0967 96.5474 46.0967 95.8759V95.6152V94.9041C46.0967 94.3747 46.0967 94.3115 46.0653 94.1219H46.881L46.8654 94.1298Z" fill="black"/>
<path d="M48.9834 98.8306C49.5482 98.8069 50.3875 98.5936 51.0307 98.3013C51.9014 97.9141 52.5602 97.3848 53.1093 96.5947C53.4231 96.1286 53.627 95.7493 53.8388 95.1726C54.0663 95.457 54.1604 95.5439 54.4428 95.7493C53.8623 97.0213 53.2113 97.8351 52.27 98.4751C51.5641 98.957 50.7012 99.3047 49.6345 99.5259C49.3678 99.5812 49.3443 99.5891 49.1952 99.6365L48.9756 98.8227L48.9834 98.8306ZM49.509 94.4773C50.3012 94.975 50.7405 95.3148 51.266 95.8204L50.764 96.4446C50.2306 95.8678 49.6658 95.4096 49.0305 95.0382L49.509 94.4773Z" fill="black"/>
<path d="M58.5607 94.0271C58.5241 94.0797 58.4744 94.1693 58.4117 94.2957C58.2627 94.6196 58.2156 94.7302 58.1293 94.8882C58.1842 94.8882 58.2862 94.8645 58.4274 94.8645L59.8157 94.8408C60.0746 94.8408 60.1373 94.825 60.2628 94.7855L60.8511 95.4097C60.7805 95.5045 60.7648 95.5519 60.6942 95.7968C60.4746 96.5 59.9569 97.535 59.3529 98.2303C58.7097 98.965 57.9411 99.526 56.89 100C56.7331 99.7156 56.6547 99.6129 56.4036 99.3996C57.4626 98.965 58.1607 98.4831 58.8117 97.7246C59.3294 97.1242 59.7295 96.3657 59.9961 95.4966L57.792 95.5282C57.3292 96.2472 56.7958 96.8239 56.1526 97.3217C55.9722 97.0768 55.886 96.9978 55.5879 96.816C56.3644 96.2867 56.8743 95.7178 57.3684 94.825C57.6038 94.3984 57.7214 94.1061 57.7606 93.8532L58.5529 94.0271H58.5607ZM60.6158 93.8216C60.9453 94.193 61.0943 94.4221 61.3374 94.8724L60.906 95.1095C60.6786 94.6749 60.4825 94.3826 60.1844 94.035L60.6158 93.8137V93.8216ZM61.4316 93.4187C61.7689 93.79 61.91 94.0034 62.1454 94.4458L61.7218 94.6907C61.5022 94.2799 61.3139 93.9876 61.008 93.6399L61.4237 93.4187H61.4316Z" fill="black"/>
<path d="M67.5969 95.0146C68.0518 95.0146 68.0989 95.0146 68.2479 94.9672L68.6009 95.3227C68.546 95.4412 68.5303 95.4807 68.5067 95.6861C68.3812 96.4999 68.3028 96.8001 68.1067 97.29C67.6047 98.5146 66.6242 99.3442 65.0319 99.8893C64.8986 99.597 64.828 99.4864 64.5691 99.1941C65.228 99.0361 65.628 98.8701 66.0751 98.5778C67.0635 97.9221 67.5733 97.0372 67.7302 95.6782H64.1612V96.4762C64.1612 96.7527 64.1612 97.0135 64.1848 97.1636H63.4004C63.4239 96.9424 63.4318 96.7922 63.4318 96.4604V95.615C63.4318 95.3385 63.4318 95.1884 63.4004 94.9909C63.62 95.0146 63.769 95.0146 64.1142 95.0146H65.5182V94.5247C65.5182 94.2008 65.5182 94.0665 65.4869 93.8848H66.3105C66.2791 94.0349 66.2712 94.2403 66.2712 94.5247V95.0146H67.6125H67.5969Z" fill="black"/>
<path d="M73.0484 99.0362H74.4211C74.7897 99.0362 74.8995 99.0362 75.1349 98.9967V99.6762C74.9466 99.6524 74.7505 99.6445 74.4211 99.6445H71.0639C70.7031 99.6445 70.5619 99.6445 70.3501 99.6762V98.9967C70.5933 99.0362 70.7501 99.0441 71.0639 99.0441H72.3738V96.7213H71.4875C71.2051 96.7213 71.009 96.7213 70.7815 96.7608V96.0813C71.009 96.1129 71.1737 96.1287 71.4796 96.1287H73.9975C74.2956 96.1287 74.4838 96.1129 74.7034 96.0813V96.7529C74.5073 96.7292 74.3583 96.7213 73.9975 96.7213H73.0484V99.0441V99.0362Z" fill="black"/>
<path d="M78.8682 94.193C78.8473 94.3141 78.8237 94.8329 78.7976 95.7494C78.7505 97.1004 78.5937 97.851 78.225 98.57C77.9897 99.0361 77.723 99.3759 77.2524 99.8341C77.0406 99.5497 76.9464 99.4628 76.6641 99.2731C77.2131 98.8228 77.5583 98.333 77.7857 97.6693C77.9975 97.0451 78.0838 96.1602 78.0838 94.7144C78.0838 94.4221 78.0838 94.3194 78.0603 94.1534L78.8525 94.193H78.8682ZM80.6644 94.106C80.6252 94.3431 80.6252 94.4537 80.6252 94.9514L80.586 98.8465C81.1194 98.6253 81.4253 98.4041 81.7469 98.0406C82.092 97.6535 82.3352 97.2348 82.4921 96.7054C82.696 96.974 82.7744 97.053 83.0411 97.2664C82.7588 97.93 82.4058 98.4436 81.9665 98.8465C81.5665 99.202 81.19 99.4154 80.4762 99.6919C80.3428 99.7393 80.2644 99.7788 80.1938 99.8183L79.8173 99.4075C79.8565 99.2415 79.8644 99.123 79.8722 98.7675L79.9036 94.9435V94.7776C79.9036 94.4142 79.9036 94.2799 79.8722 94.0981H80.6723L80.6644 94.106Z" fill="black"/>
<path d="M54.9991 37.7815H54.0107V43.1303H54.9991V37.7815Z" fill="#717071"/>
<path d="M50.7714 43.9598L48.8262 35.8536L49.791 35.6482L51.7441 43.7465L50.7714 43.9598Z" fill="#717071"/>
<path d="M58.1523 43.9598L60.0976 35.8536L59.1328 35.6482L57.1797 43.7465L58.1523 43.9598Z" fill="#717071"/>
<path d="M54.4737 38.6743C59.4036 38.6743 63.4 34.6488 63.4 29.6832C63.4 24.7176 59.4036 20.6921 54.4737 20.6921C49.5438 20.6921 45.5474 24.7176 45.5474 29.6832C45.5474 34.6488 49.5438 38.6743 54.4737 38.6743Z" fill="#00AB9F"/>
<path d="M57.015 50.0908H51.9165C51.4537 50.0908 51.0537 49.759 50.9595 49.3007L49.7986 43.4226C49.681 42.8142 50.1438 42.2454 50.7556 42.2454H58.1759C58.7877 42.2454 59.2505 42.8142 59.1329 43.4226L57.972 49.3007C57.8778 49.759 57.4778 50.0908 57.015 50.0908Z" fill="#D2AC79"/>
</g>
<defs>
<clipPath id="clip0_162_282">
<rect width="125" height="100" fill="white" transform="translate(0.5)"/>
</clipPath>
</defs>
</svg>
