<svg width="32" height="32" viewBox="0 0 32 32" fill="none" xmlns="http://www.w3.org/2000/svg">
<path d="M21.7605 1.0427C21.1017 0.390368 20.2083 0.0239258 19.2767 0.0239258C18.3452 0.0239258 17.4518 0.390368 16.7929 1.0427L1.36546 16.3277C1.03918 16.651 0.780355 17.0347 0.603772 17.457C0.42719 17.8794 0.336304 18.332 0.336304 18.7891C0.336304 19.2462 0.42719 19.6989 0.603772 20.1212C0.780355 20.5435 1.03918 20.9273 1.36546 21.2505L3.19571 23.0621C3.99215 23.8527 5.11184 23.7119 5.78804 23.3128C6.16104 23.0933 6.59719 23.0033 7.02762 23.0568C7.45805 23.1102 7.85824 23.3042 8.16498 23.6081C8.47173 23.912 8.66755 24.3085 8.72155 24.7349C8.77554 25.1613 8.68462 25.5934 8.46313 25.9629C8.06179 26.6328 7.91812 27.742 8.71612 28.531L10.5479 30.3442C10.8742 30.6674 11.2616 30.9238 11.6879 31.0988C12.1142 31.2737 12.5711 31.3637 13.0325 31.3637C13.4939 31.3637 13.9508 31.2737 14.3772 31.0988C14.8035 30.9238 15.1908 30.6674 15.5171 30.3442L30.943 15.0622C31.2693 14.739 31.5281 14.3553 31.7047 13.9329C31.8813 13.5106 31.9722 13.058 31.9722 12.6009C31.9722 12.1437 31.8813 11.6911 31.7047 11.2688C31.5281 10.8464 31.2693 10.4627 30.943 10.1395L29.1143 8.3263C28.3179 7.53729 27.1966 7.67653 26.5204 8.07567C26.1474 8.29509 25.7113 8.38516 25.2809 8.33167C24.8504 8.27819 24.4502 8.08418 24.1435 7.7803C23.8367 7.47642 23.6409 7.07997 23.5869 6.65356C23.5329 6.22715 23.6239 5.79507 23.8453 5.42555C24.2482 4.75566 24.3904 3.64642 23.5924 2.85741L21.7621 1.0427H21.7605Z" fill="white"/>
</svg>
