<svg width="28" height="32" viewBox="0 0 28 32" fill="none" xmlns="http://www.w3.org/2000/svg">
<path d="M0.618286 23.6668C0.618286 25.1335 1.27441 26.4502 2.30065 27.3668V29.5002C2.30065 30.8835 3.42784 32.0002 4.8242 32.0002C6.22056 32.0002 7.34775 30.8835 7.34775 29.5002V28.6668H20.8067V29.5002C20.8067 30.8668 21.9339 32.0002 23.3302 32.0002C24.7098 32.0002 25.8538 30.8835 25.8538 29.5002V27.3668C26.88 26.4502 27.5361 25.1335 27.5361 23.6668V7.00016C27.5361 1.16683 21.5133 0.333496 14.0772 0.333496C6.64115 0.333496 0.618286 1.16683 0.618286 7.00016V23.6668ZM6.50657 25.3335C5.1102 25.3335 3.98302 24.2168 3.98302 22.8335C3.98302 21.4502 5.1102 20.3335 6.50657 20.3335C7.90293 20.3335 9.03011 21.4502 9.03011 22.8335C9.03011 24.2168 7.90293 25.3335 6.50657 25.3335ZM21.6479 25.3335C20.2515 25.3335 19.1243 24.2168 19.1243 22.8335C19.1243 21.4502 20.2515 20.3335 21.6479 20.3335C23.0442 20.3335 24.1714 21.4502 24.1714 22.8335C24.1714 24.2168 23.0442 25.3335 21.6479 25.3335ZM24.1714 15.3335H3.98302V7.00016H24.1714V15.3335Z" fill="white"/>
</svg>
