<svg width="58" height="17" viewBox="0 0 58 17" fill="none" xmlns="http://www.w3.org/2000/svg">
<path d="M58.0002 1.26836V0.838867H33.5901L29.4402 7.56096L25.4001 0.838867H0.160156V1.26836C1.82016 1.26836 3.17015 2.60679 3.17015 4.26484V12.7149C3.17015 14.3729 1.82016 15.7214 0.160156 15.7214V16.1509H21.4202V15.7214C19.7602 15.7214 18.4202 14.3729 18.4202 12.7149V4.26484C18.4202 4.08505 18.4402 3.90526 18.4702 3.73546L25.9202 16.1209L33.6801 3.54568C33.7301 3.77541 33.7601 4.01513 33.7601 4.25485V12.7049C33.7601 14.363 32.4102 15.7114 30.7502 15.7114C30.7402 15.7114 30.7202 15.7114 30.7102 15.7114V16.1409L58.0002 16.1209V15.7214C56.3402 15.7214 54.9901 14.3729 54.9901 12.7149V4.26484C54.9901 2.60679 56.3402 1.26836 58.0002 1.26836ZM16.8002 12.7149C16.8002 14.3729 15.4601 15.7214 13.7901 15.7214C12.1201 15.7214 10.7802 14.3729 10.7802 12.7149V4.26484C10.7802 2.60679 12.1301 1.26836 13.7901 1.26836C15.4501 1.26836 16.8002 2.60679 16.8002 4.26484V12.7149ZM47.3902 12.7149C47.3902 14.3729 46.0402 15.7214 44.3902 15.7214C42.7402 15.7214 41.3802 14.3729 41.3802 12.7149V4.26484C41.3802 2.60679 42.7302 1.26836 44.3902 1.26836C46.0502 1.26836 47.3902 2.60679 47.3902 4.26484V12.7149Z" fill="#C6000B"/>
</svg>
