<svg width="17" height="18" viewBox="0 0 17 18" fill="none" xmlns="http://www.w3.org/2000/svg">
<path d="M16.1364 6.43948L11.1374 5.65526L8.90264 0.765024C8.8416 0.631132 8.74119 0.522744 8.61714 0.45686C8.30606 0.29109 7.92802 0.429232 7.77248 0.765024L5.53776 5.65526L0.538692 6.43948C0.400868 6.46074 0.274857 6.53087 0.17838 6.63713C0.0617453 6.76653 -0.00252593 6.94062 -0.000310794 7.12115C0.00190434 7.30167 0.0704246 7.47386 0.190194 7.59988L3.80709 11.4062L2.95258 16.781C2.93254 16.9061 2.94536 17.0346 2.98958 17.1522C3.0338 17.2698 3.10765 17.3716 3.20277 17.4462C3.29788 17.5208 3.41044 17.5651 3.5277 17.5741C3.64495 17.5831 3.7622 17.5565 3.86616 17.4972L8.33756 14.9597L12.809 17.4972C12.931 17.5674 13.0728 17.5908 13.2087 17.5653C13.5512 17.5015 13.7816 17.1508 13.7225 16.781L12.868 11.4062L16.4849 7.59988C16.5834 7.49574 16.6483 7.35972 16.668 7.21096C16.7212 6.83903 16.481 6.49474 16.1364 6.43948Z" fill="#FDBF00"/>
</svg>
