<svg width="17" height="18" viewBox="0 0 17 18" fill="none" xmlns="http://www.w3.org/2000/svg">
<path d="M16.1059 6.43948L11.1165 5.65526L8.88604 0.765024C8.82512 0.631132 8.7249 0.522744 8.60109 0.45686C8.2906 0.29109 7.91329 0.429232 7.75805 0.765024L5.52762 5.65526L0.538145 6.43948C0.400586 6.46074 0.274817 6.53087 0.178526 6.63713C0.0621144 6.76653 -0.0020335 6.94062 0.000177381 7.12115C0.00238826 7.30167 0.070777 7.47386 0.190316 7.59988L3.80027 11.4062L2.9474 16.781C2.9274 16.9061 2.94019 17.0346 2.98433 17.1522C3.02846 17.2698 3.10218 17.3716 3.19711 17.4462C3.29204 17.5208 3.40439 17.5651 3.52141 17.5741C3.63844 17.5831 3.75547 17.5565 3.85922 17.4972L8.32204 14.9597L12.7849 17.4972C12.9067 17.5674 13.0482 17.5908 13.1838 17.5653C13.5257 17.5015 13.7556 17.1508 13.6967 16.781L12.8438 11.4062L16.4538 7.59988C16.552 7.49574 16.6169 7.35972 16.6365 7.21096C16.6896 6.83903 16.4498 6.49474 16.1059 6.43948Z" fill="#FDBF00"/>
</svg>
