<svg width="11" height="12" viewBox="0 0 11 12" fill="none" xmlns="http://www.w3.org/2000/svg">
<path d="M10.6102 9.54512L9.8802 8.85593C10.1802 8.37649 10.4002 7.84712 10.5702 7.27779C10.6602 6.94817 10.7402 6.40881 10.7902 5.9094C10.8502 5.37003 10.4502 4.90058 9.9102 4.86063C9.3902 4.82068 8.94019 5.21022 8.90019 5.71962C8.88019 5.96932 8.8502 6.18907 8.8302 6.29894C8.7502 6.77837 8.6302 7.20787 8.4902 7.57743L5.1702 4.4611C4.8102 4.1215 4.5402 3.82185 4.3502 3.58213C4.1602 3.33243 4.07021 3.05276 4.07021 2.73313C4.07021 2.39353 4.2002 2.12385 4.4702 1.92408C4.7302 1.72432 5.09019 1.63442 5.54019 1.63442C5.65019 1.63442 5.97019 1.63442 6.26019 1.72432C6.67019 1.86415 7.06019 1.76427 7.23019 1.36474C7.44019 0.875318 7.1302 0.315976 6.6002 0.23607C6.1202 0.166152 5.61019 0.116211 5.29019 0.116211C4.26019 0.116211 3.4702 0.345941 2.9202 0.815388C2.3702 1.28484 2.09019 1.87414 2.09019 2.61327C2.09019 2.95287 2.1502 3.28249 2.2702 3.59212C2.3902 3.90176 2.6202 4.24136 2.9502 4.59095C2.2302 4.84065 1.6302 5.23019 1.1602 5.76956C0.680202 6.30893 0.450195 6.98813 0.450195 7.82714C0.450195 8.35652 0.560203 8.84594 0.770203 9.27544C0.980203 9.70493 1.2802 10.0845 1.6702 10.3941C2.0602 10.7038 2.5302 10.9435 3.0802 11.1233C3.6302 11.2931 4.2602 11.383 4.9502 11.383C5.7202 11.383 6.4202 11.2731 7.0502 11.0633C7.6802 10.8536 8.2302 10.5439 8.6902 10.1244C8.6902 10.1244 9.0702 10.474 9.4502 10.8136C9.8302 11.1532 10.4302 11.0933 10.7302 10.6838C10.9902 10.3342 10.9402 9.84477 10.6202 9.54512H10.6102ZM6.2202 9.69494C5.7802 9.8148 5.3702 9.88472 5.0002 9.88472C4.1902 9.88472 3.5602 9.69494 3.1102 9.3054C2.6602 8.92585 2.43019 8.41645 2.43019 7.7772C2.43019 7.23783 2.5902 6.79835 2.9202 6.45875C3.2502 6.11915 3.63021 5.88942 4.07021 5.75957L7.4902 8.99576C7.0902 9.33537 6.67019 9.57508 6.23019 9.69494H6.2202Z" fill="#231815"/>
</svg>
